<?xml version="1.0" encoding="UTF-8"?>
<svg viewBox="0 0 658 440" width="658" height="440" aria-label="Ground tracks of the seed-100 flights, plan view from above" style="fill:rgb(0, 0, 0);fill-opacity:1;stroke:none;stroke-width:1px;stroke-dasharray:none;stroke-linejoin:miter;stroke-linecap:butt;stroke-opacity:1;opacity:1;font-family:&quot;Source Serif 4&quot;, STIX Two Text, Times New Roman, serif;font-size:14px;font-weight:400;font-style:normal;text-anchor:start" xmlns="http://www.w3.org/2000/svg"><defs style="fill:rgb(0, 0, 0);fill-opacity:1;stroke:none;stroke-width:1px;stroke-dasharray:none;stroke-linejoin:miter;stroke-linecap:butt;stroke-opacity:1;opacity:1;font-family:&quot;Source Serif 4&quot;, STIX Two Text, Times New Roman, serif;font-size:14px;font-weight:400;font-style:normal;text-anchor:start"><clipPath id="ct" style="fill:rgb(0, 0, 0);fill-opacity:1;stroke:none;stroke-width:1px;stroke-dasharray:none;stroke-linejoin:miter;stroke-linecap:butt;stroke-opacity:1;opacity:1;font-family:&quot;Source Serif 4&quot;, STIX Two Text, Times New Roman, serif;font-size:14px;font-weight:400;font-style:normal;text-anchor:start"><rect x="113" y="4" width="476" height="340" style="fill:rgb(0, 0, 0);fill-opacity:1;stroke:none;stroke-width:1px;stroke-dasharray:none;stroke-linejoin:miter;stroke-linecap:butt;stroke-opacity:1;opacity:1;font-family:&quot;Source Serif 4&quot;, STIX Two Text, Times New Roman, serif;font-size:14px;font-weight:400;font-style:normal;text-anchor:start"/></clipPath></defs><line x1="113" x2="113" y1="4" y2="344" style="fill:rgb(0, 0, 0);fill-opacity:1;stroke:rgb(236, 236, 234);stroke-width:1px;stroke-dasharray:none;stroke-linejoin:miter;stroke-linecap:butt;stroke-opacity:1;opacity:1;font-family:&quot;Source Serif 4&quot;, STIX Two Text, Times New Roman, serif;font-size:14px;font-weight:400;font-style:normal;text-anchor:start"/><line x1="181" x2="181" y1="4" y2="344" style="fill:rgb(0, 0, 0);fill-opacity:1;stroke:rgb(236, 236, 234);stroke-width:1px;stroke-dasharray:none;stroke-linejoin:miter;stroke-linecap:butt;stroke-opacity:1;opacity:1;font-family:&quot;Source Serif 4&quot;, STIX Two Text, Times New Roman, serif;font-size:14px;font-weight:400;font-style:normal;text-anchor:start"/><line x1="249" x2="249" y1="4" y2="344" style="fill:rgb(0, 0, 0);fill-opacity:1;stroke:rgb(236, 236, 234);stroke-width:1px;stroke-dasharray:none;stroke-linejoin:miter;stroke-linecap:butt;stroke-opacity:1;opacity:1;font-family:&quot;Source Serif 4&quot;, STIX Two Text, Times New Roman, serif;font-size:14px;font-weight:400;font-style:normal;text-anchor:start"/><line x1="317" x2="317" y1="4" y2="344" style="fill:rgb(0, 0, 0);fill-opacity:1;stroke:rgb(236, 236, 234);stroke-width:1px;stroke-dasharray:none;stroke-linejoin:miter;stroke-linecap:butt;stroke-opacity:1;opacity:1;font-family:&quot;Source Serif 4&quot;, STIX Two Text, Times New Roman, serif;font-size:14px;font-weight:400;font-style:normal;text-anchor:start"/><line x1="385" x2="385" y1="4" y2="344" style="fill:rgb(0, 0, 0);fill-opacity:1;stroke:rgb(236, 236, 234);stroke-width:1px;stroke-dasharray:none;stroke-linejoin:miter;stroke-linecap:butt;stroke-opacity:1;opacity:1;font-family:&quot;Source Serif 4&quot;, STIX Two Text, Times New Roman, serif;font-size:14px;font-weight:400;font-style:normal;text-anchor:start"/><line x1="453" x2="453" y1="4" y2="344" style="fill:rgb(0, 0, 0);fill-opacity:1;stroke:rgb(236, 236, 234);stroke-width:1px;stroke-dasharray:none;stroke-linejoin:miter;stroke-linecap:butt;stroke-opacity:1;opacity:1;font-family:&quot;Source Serif 4&quot;, STIX Two Text, Times New Roman, serif;font-size:14px;font-weight:400;font-style:normal;text-anchor:start"/><line x1="521" x2="521" y1="4" y2="344" style="fill:rgb(0, 0, 0);fill-opacity:1;stroke:rgb(236, 236, 234);stroke-width:1px;stroke-dasharray:none;stroke-linejoin:miter;stroke-linecap:butt;stroke-opacity:1;opacity:1;font-family:&quot;Source Serif 4&quot;, STIX Two Text, Times New Roman, serif;font-size:14px;font-weight:400;font-style:normal;text-anchor:start"/><line x1="589" x2="589" y1="4" y2="344" style="fill:rgb(0, 0, 0);fill-opacity:1;stroke:rgb(236, 236, 234);stroke-width:1px;stroke-dasharray:none;stroke-linejoin:miter;stroke-linecap:butt;stroke-opacity:1;opacity:1;font-family:&quot;Source Serif 4&quot;, STIX Two Text, Times New Roman, serif;font-size:14px;font-weight:400;font-style:normal;text-anchor:start"/><line x1="113" x2="589" y1="4" y2="4" style="fill:rgb(0, 0, 0);fill-opacity:1;stroke:rgb(236, 236, 234);stroke-width:1px;stroke-dasharray:none;stroke-linejoin:miter;stroke-linecap:butt;stroke-opacity:1;opacity:1;font-family:&quot;Source Serif 4&quot;, STIX Two Text, Times New Roman, serif;font-size:14px;font-weight:400;font-style:normal;text-anchor:start"/><line x1="113" x2="589" y1="72" y2="72" style="fill:rgb(0, 0, 0);fill-opacity:1;stroke:rgb(236, 236, 234);stroke-width:1px;stroke-dasharray:none;stroke-linejoin:miter;stroke-linecap:butt;stroke-opacity:1;opacity:1;font-family:&quot;Source Serif 4&quot;, STIX Two Text, Times New Roman, serif;font-size:14px;font-weight:400;font-style:normal;text-anchor:start"/><line x1="113" x2="589" y1="140" y2="140" style="fill:rgb(0, 0, 0);fill-opacity:1;stroke:rgb(236, 236, 234);stroke-width:1px;stroke-dasharray:none;stroke-linejoin:miter;stroke-linecap:butt;stroke-opacity:1;opacity:1;font-family:&quot;Source Serif 4&quot;, STIX Two Text, Times New Roman, serif;font-size:14px;font-weight:400;font-style:normal;text-anchor:start"/><line x1="113" x2="589" y1="208" y2="208" style="fill:rgb(0, 0, 0);fill-opacity:1;stroke:rgb(236, 236, 234);stroke-width:1px;stroke-dasharray:none;stroke-linejoin:miter;stroke-linecap:butt;stroke-opacity:1;opacity:1;font-family:&quot;Source Serif 4&quot;, STIX Two Text, Times New Roman, serif;font-size:14px;font-weight:400;font-style:normal;text-anchor:start"/><line x1="113" x2="589" y1="276" y2="276" style="fill:rgb(0, 0, 0);fill-opacity:1;stroke:rgb(236, 236, 234);stroke-width:1px;stroke-dasharray:none;stroke-linejoin:miter;stroke-linecap:butt;stroke-opacity:1;opacity:1;font-family:&quot;Source Serif 4&quot;, STIX Two Text, Times New Roman, serif;font-size:14px;font-weight:400;font-style:normal;text-anchor:start"/><line x1="113" x2="589" y1="344" y2="344" style="fill:rgb(0, 0, 0);fill-opacity:1;stroke:rgb(236, 236, 234);stroke-width:1px;stroke-dasharray:none;stroke-linejoin:miter;stroke-linecap:butt;stroke-opacity:1;opacity:1;font-family:&quot;Source Serif 4&quot;, STIX Two Text, Times New Roman, serif;font-size:14px;font-weight:400;font-style:normal;text-anchor:start"/><rect x="113" y="4" width="476" height="340" style="fill:none;fill-opacity:1;stroke:rgb(26, 26, 26);stroke-width:1px;stroke-dasharray:none;stroke-linejoin:miter;stroke-linecap:butt;stroke-opacity:1;opacity:1;font-family:&quot;Source Serif 4&quot;, STIX Two Text, Times New Roman, serif;font-size:14px;font-weight:400;font-style:normal;text-anchor:start"/><line x1="113" x2="113" y1="344" y2="348" style="fill:rgb(0, 0, 0);fill-opacity:1;stroke:rgb(26, 26, 26);stroke-width:1px;stroke-dasharray:none;stroke-linejoin:miter;stroke-linecap:butt;stroke-opacity:1;opacity:1;font-family:&quot;Source Serif 4&quot;, STIX Two Text, Times New Roman, serif;font-size:14px;font-weight:400;font-style:normal;text-anchor:start"/><text x="113" y="360" text-anchor="middle" style="fill:rgb(61, 61, 61);fill-opacity:1;stroke:none;stroke-width:1px;stroke-dasharray:none;stroke-linejoin:miter;stroke-linecap:butt;stroke-opacity:1;opacity:1;font-family:&quot;Source Serif 4&quot;, STIX Two Text, Times New Roman, serif;font-size:11.5px;font-weight:400;font-style:normal;text-anchor:middle">0.0</text><line x1="181" x2="181" y1="344" y2="348" style="fill:rgb(0, 0, 0);fill-opacity:1;stroke:rgb(26, 26, 26);stroke-width:1px;stroke-dasharray:none;stroke-linejoin:miter;stroke-linecap:butt;stroke-opacity:1;opacity:1;font-family:&quot;Source Serif 4&quot;, STIX Two Text, Times New Roman, serif;font-size:14px;font-weight:400;font-style:normal;text-anchor:start"/><text x="181" y="360" text-anchor="middle" style="fill:rgb(61, 61, 61);fill-opacity:1;stroke:none;stroke-width:1px;stroke-dasharray:none;stroke-linejoin:miter;stroke-linecap:butt;stroke-opacity:1;opacity:1;font-family:&quot;Source Serif 4&quot;, STIX Two Text, Times New Roman, serif;font-size:11.5px;font-weight:400;font-style:normal;text-anchor:middle">0.5</text><line x1="249" x2="249" y1="344" y2="348" style="fill:rgb(0, 0, 0);fill-opacity:1;stroke:rgb(26, 26, 26);stroke-width:1px;stroke-dasharray:none;stroke-linejoin:miter;stroke-linecap:butt;stroke-opacity:1;opacity:1;font-family:&quot;Source Serif 4&quot;, STIX Two Text, Times New Roman, serif;font-size:14px;font-weight:400;font-style:normal;text-anchor:start"/><text x="249" y="360" text-anchor="middle" style="fill:rgb(61, 61, 61);fill-opacity:1;stroke:none;stroke-width:1px;stroke-dasharray:none;stroke-linejoin:miter;stroke-linecap:butt;stroke-opacity:1;opacity:1;font-family:&quot;Source Serif 4&quot;, STIX Two Text, Times New Roman, serif;font-size:11.5px;font-weight:400;font-style:normal;text-anchor:middle">1.0</text><line x1="317" x2="317" y1="344" y2="348" style="fill:rgb(0, 0, 0);fill-opacity:1;stroke:rgb(26, 26, 26);stroke-width:1px;stroke-dasharray:none;stroke-linejoin:miter;stroke-linecap:butt;stroke-opacity:1;opacity:1;font-family:&quot;Source Serif 4&quot;, STIX Two Text, Times New Roman, serif;font-size:14px;font-weight:400;font-style:normal;text-anchor:start"/><text x="317" y="360" text-anchor="middle" style="fill:rgb(61, 61, 61);fill-opacity:1;stroke:none;stroke-width:1px;stroke-dasharray:none;stroke-linejoin:miter;stroke-linecap:butt;stroke-opacity:1;opacity:1;font-family:&quot;Source Serif 4&quot;, STIX Two Text, Times New Roman, serif;font-size:11.5px;font-weight:400;font-style:normal;text-anchor:middle">1.5</text><line x1="385" x2="385" y1="344" y2="348" style="fill:rgb(0, 0, 0);fill-opacity:1;stroke:rgb(26, 26, 26);stroke-width:1px;stroke-dasharray:none;stroke-linejoin:miter;stroke-linecap:butt;stroke-opacity:1;opacity:1;font-family:&quot;Source Serif 4&quot;, STIX Two Text, Times New Roman, serif;font-size:14px;font-weight:400;font-style:normal;text-anchor:start"/><text x="385" y="360" text-anchor="middle" style="fill:rgb(61, 61, 61);fill-opacity:1;stroke:none;stroke-width:1px;stroke-dasharray:none;stroke-linejoin:miter;stroke-linecap:butt;stroke-opacity:1;opacity:1;font-family:&quot;Source Serif 4&quot;, STIX Two Text, Times New Roman, serif;font-size:11.5px;font-weight:400;font-style:normal;text-anchor:middle">2.0</text><line x1="453" x2="453" y1="344" y2="348" style="fill:rgb(0, 0, 0);fill-opacity:1;stroke:rgb(26, 26, 26);stroke-width:1px;stroke-dasharray:none;stroke-linejoin:miter;stroke-linecap:butt;stroke-opacity:1;opacity:1;font-family:&quot;Source Serif 4&quot;, STIX Two Text, Times New Roman, serif;font-size:14px;font-weight:400;font-style:normal;text-anchor:start"/><text x="453" y="360" text-anchor="middle" style="fill:rgb(61, 61, 61);fill-opacity:1;stroke:none;stroke-width:1px;stroke-dasharray:none;stroke-linejoin:miter;stroke-linecap:butt;stroke-opacity:1;opacity:1;font-family:&quot;Source Serif 4&quot;, STIX Two Text, Times New Roman, serif;font-size:11.5px;font-weight:400;font-style:normal;text-anchor:middle">2.5</text><line x1="521" x2="521" y1="344" y2="348" style="fill:rgb(0, 0, 0);fill-opacity:1;stroke:rgb(26, 26, 26);stroke-width:1px;stroke-dasharray:none;stroke-linejoin:miter;stroke-linecap:butt;stroke-opacity:1;opacity:1;font-family:&quot;Source Serif 4&quot;, STIX Two Text, Times New Roman, serif;font-size:14px;font-weight:400;font-style:normal;text-anchor:start"/><text x="521" y="360" text-anchor="middle" style="fill:rgb(61, 61, 61);fill-opacity:1;stroke:none;stroke-width:1px;stroke-dasharray:none;stroke-linejoin:miter;stroke-linecap:butt;stroke-opacity:1;opacity:1;font-family:&quot;Source Serif 4&quot;, STIX Two Text, Times New Roman, serif;font-size:11.5px;font-weight:400;font-style:normal;text-anchor:middle">3.0</text><line x1="589" x2="589" y1="344" y2="348" style="fill:rgb(0, 0, 0);fill-opacity:1;stroke:rgb(26, 26, 26);stroke-width:1px;stroke-dasharray:none;stroke-linejoin:miter;stroke-linecap:butt;stroke-opacity:1;opacity:1;font-family:&quot;Source Serif 4&quot;, STIX Two Text, Times New Roman, serif;font-size:14px;font-weight:400;font-style:normal;text-anchor:start"/><text x="589" y="360" text-anchor="middle" style="fill:rgb(61, 61, 61);fill-opacity:1;stroke:none;stroke-width:1px;stroke-dasharray:none;stroke-linejoin:miter;stroke-linecap:butt;stroke-opacity:1;opacity:1;font-family:&quot;Source Serif 4&quot;, STIX Two Text, Times New Roman, serif;font-size:11.5px;font-weight:400;font-style:normal;text-anchor:middle">3.5</text><line x1="109" x2="113" y1="4" y2="4" style="fill:rgb(0, 0, 0);fill-opacity:1;stroke:rgb(26, 26, 26);stroke-width:1px;stroke-dasharray:none;stroke-linejoin:miter;stroke-linecap:butt;stroke-opacity:1;opacity:1;font-family:&quot;Source Serif 4&quot;, STIX Two Text, Times New Roman, serif;font-size:14px;font-weight:400;font-style:normal;text-anchor:start"/><text x="106" y="8" text-anchor="end" style="fill:rgb(61, 61, 61);fill-opacity:1;stroke:none;stroke-width:1px;stroke-dasharray:none;stroke-linejoin:miter;stroke-linecap:butt;stroke-opacity:1;opacity:1;font-family:&quot;Source Serif 4&quot;, STIX Two Text, Times New Roman, serif;font-size:11.5px;font-weight:400;font-style:normal;text-anchor:end">−0.5</text><line x1="109" x2="113" y1="72" y2="72" style="fill:rgb(0, 0, 0);fill-opacity:1;stroke:rgb(26, 26, 26);stroke-width:1px;stroke-dasharray:none;stroke-linejoin:miter;stroke-linecap:butt;stroke-opacity:1;opacity:1;font-family:&quot;Source Serif 4&quot;, STIX Two Text, Times New Roman, serif;font-size:14px;font-weight:400;font-style:normal;text-anchor:start"/><text x="106" y="76" text-anchor="end" style="fill:rgb(61, 61, 61);fill-opacity:1;stroke:none;stroke-width:1px;stroke-dasharray:none;stroke-linejoin:miter;stroke-linecap:butt;stroke-opacity:1;opacity:1;font-family:&quot;Source Serif 4&quot;, STIX Two Text, Times New Roman, serif;font-size:11.5px;font-weight:400;font-style:normal;text-anchor:end">0.0</text><line x1="109" x2="113" y1="140" y2="140" style="fill:rgb(0, 0, 0);fill-opacity:1;stroke:rgb(26, 26, 26);stroke-width:1px;stroke-dasharray:none;stroke-linejoin:miter;stroke-linecap:butt;stroke-opacity:1;opacity:1;font-family:&quot;Source Serif 4&quot;, STIX Two Text, Times New Roman, serif;font-size:14px;font-weight:400;font-style:normal;text-anchor:start"/><text x="106" y="144" text-anchor="end" style="fill:rgb(61, 61, 61);fill-opacity:1;stroke:none;stroke-width:1px;stroke-dasharray:none;stroke-linejoin:miter;stroke-linecap:butt;stroke-opacity:1;opacity:1;font-family:&quot;Source Serif 4&quot;, STIX Two Text, Times New Roman, serif;font-size:11.5px;font-weight:400;font-style:normal;text-anchor:end">0.5</text><line x1="109" x2="113" y1="208" y2="208" style="fill:rgb(0, 0, 0);fill-opacity:1;stroke:rgb(26, 26, 26);stroke-width:1px;stroke-dasharray:none;stroke-linejoin:miter;stroke-linecap:butt;stroke-opacity:1;opacity:1;font-family:&quot;Source Serif 4&quot;, STIX Two Text, Times New Roman, serif;font-size:14px;font-weight:400;font-style:normal;text-anchor:start"/><text x="106" y="212" text-anchor="end" style="fill:rgb(61, 61, 61);fill-opacity:1;stroke:none;stroke-width:1px;stroke-dasharray:none;stroke-linejoin:miter;stroke-linecap:butt;stroke-opacity:1;opacity:1;font-family:&quot;Source Serif 4&quot;, STIX Two Text, Times New Roman, serif;font-size:11.5px;font-weight:400;font-style:normal;text-anchor:end">1.0</text><line x1="109" x2="113" y1="276" y2="276" style="fill:rgb(0, 0, 0);fill-opacity:1;stroke:rgb(26, 26, 26);stroke-width:1px;stroke-dasharray:none;stroke-linejoin:miter;stroke-linecap:butt;stroke-opacity:1;opacity:1;font-family:&quot;Source Serif 4&quot;, STIX Two Text, Times New Roman, serif;font-size:14px;font-weight:400;font-style:normal;text-anchor:start"/><text x="106" y="280" text-anchor="end" style="fill:rgb(61, 61, 61);fill-opacity:1;stroke:none;stroke-width:1px;stroke-dasharray:none;stroke-linejoin:miter;stroke-linecap:butt;stroke-opacity:1;opacity:1;font-family:&quot;Source Serif 4&quot;, STIX Two Text, Times New Roman, serif;font-size:11.5px;font-weight:400;font-style:normal;text-anchor:end">1.5</text><line x1="109" x2="113" y1="344" y2="344" style="fill:rgb(0, 0, 0);fill-opacity:1;stroke:rgb(26, 26, 26);stroke-width:1px;stroke-dasharray:none;stroke-linejoin:miter;stroke-linecap:butt;stroke-opacity:1;opacity:1;font-family:&quot;Source Serif 4&quot;, STIX Two Text, Times New Roman, serif;font-size:14px;font-weight:400;font-style:normal;text-anchor:start"/><text x="106" y="348" text-anchor="end" style="fill:rgb(61, 61, 61);fill-opacity:1;stroke:none;stroke-width:1px;stroke-dasharray:none;stroke-linejoin:miter;stroke-linecap:butt;stroke-opacity:1;opacity:1;font-family:&quot;Source Serif 4&quot;, STIX Two Text, Times New Roman, serif;font-size:11.5px;font-weight:400;font-style:normal;text-anchor:end">2.0</text><text x="351" y="378" text-anchor="middle" style="fill:rgb(26, 26, 26);fill-opacity:1;stroke:none;stroke-width:1px;stroke-dasharray:none;stroke-linejoin:miter;stroke-linecap:butt;stroke-opacity:1;opacity:1;font-family:&quot;Source Serif 4&quot;, STIX Two Text, Times New Roman, serif;font-size:12.5px;font-weight:400;font-style:normal;text-anchor:middle">Along the bare airframe’s path (km) →</text><text transform="translate(71,174) rotate(-90)" text-anchor="middle" style="fill:rgb(26, 26, 26);fill-opacity:1;stroke:none;stroke-width:1px;stroke-dasharray:none;stroke-linejoin:miter;stroke-linecap:butt;stroke-opacity:1;opacity:1;font-family:&quot;Source Serif 4&quot;, STIX Two Text, Times New Roman, serif;font-size:12.5px;font-weight:400;font-style:normal;text-anchor:middle">Right of path (km) ↓</text><g clip-path="url(#ct)" style="fill:rgb(0, 0, 0);fill-opacity:1;stroke:none;stroke-width:1px;stroke-dasharray:none;stroke-linejoin:miter;stroke-linecap:butt;stroke-opacity:1;opacity:1;font-family:&quot;Source Serif 4&quot;, STIX Two Text, Times New Roman, serif;font-size:14px;font-weight:400;font-style:normal;text-anchor:start"><path d="M113,72L116.5,72L120,72L123.5,72.1L127,72.1L130.5,72.1L134,72.2L137.5,72.2L141,72.3L144.5,72.3L148,72.4L151.5,72.4L155,72.4L158.6,72.5L162.1,72.5L165.6,72.5L169.1,72.6L172.7,72.7L176.2,72.7L179.7,72.9L183.2,72.9L186.8,73L190.3,73L193.8,73L197.3,72.9L200.8,72.9L204.3,72.8L207.8,72.7L211.3,72.6L214.8,72.5L218.2,72.4L221.7,72.4L225.1,72.4L228.5,72.3L231.9,72.3L235.3,72.3L238.7,72.4L242.1,72.4L245.5,72.5L248.9,72.6L252.2,72.7L255.6,72.9L259,73L262.4,73.2L265.7,73.3L269.1,73.5L272.5,73.7L275.9,73.9L279.4,74.1L282.8,74.3L286.3,74.5L289.8,74.7L293.3,74.9L296.9,75.1L300.4,75.3L304,75.4L307.5,75.5L311.1,75.5L314.8,75.6L318.4,75.6L322.1,75.5L325.8,75.4L329.5,75.3L333.3,75.2L337,75.1L340.8,75L344.6,74.8L348.4,74.7L352.2,74.5L356,74.4L359.8,74.3L363.6,74.1L367.3,74L371.1,73.8L374.8,73.7L378.6,73.6L382.3,73.5L386,73.4L389.6,73.4L393.2,73.4L396.8,73.4L400.4,73.4L403.9,73.4L407.4,73.4L410.8,73.4L414.2,73.5L417.6,73.5L420.9,73.5L424.2,73.5L427.5,73.4L430.8,73.3L434.1,73.3L437.3,73.2L440.6,73.2L443.9,73.1L447.2,73L450.5,73L453.8,73L457.1,72.9L460.5,72.9L463.8,72.8L467.2,72.7L470.6,72.6L474,72.6L477.5,72.5L480.9,72.5L484.5,72.4L488,72.4L491.7,72.3L495.3,72.3L499,72.3L502.7,72.2L506.5,72.1L510.3,72.1L514.2,72L518,72L521.9,71.9L525.8,71.9L529.8,71.9L533.7,72L537.6,72" style="fill:none;fill-opacity:1;stroke:rgb(26, 26, 26);stroke-width:1.8px;stroke-dasharray:5px, 3px;stroke-linejoin:round;stroke-linecap:round;stroke-opacity:1;opacity:1;font-family:&quot;Source Serif 4&quot;, STIX Two Text, Times New Roman, serif;font-size:14px;font-weight:400;font-style:normal;text-anchor:start"/><path d="M113,72L116.5,72L120,72L123.5,72.1L127,72.1L130.5,72.2L134,72.2L137.5,72.3L141,72.3L144.5,72.3L148,72.3L151.5,72.3L155.1,72.3L158.6,72.3L162.1,72.4L165.6,72.5L169.2,72.6L172.7,72.7L176.2,72.7L179.7,72.8L183.3,72.9L186.8,72.8L190.3,72.8L193.9,72.7L197.4,72.7L200.9,72.6L204.4,72.5L207.9,72.4L211.3,72.3L214.8,72.2L218.2,72.2L221.7,72.2L225.1,72.2L228.5,72.2L231.9,72.2L235.3,72.2L238.7,72.2L242.1,72.2L245.5,72.3L248.8,72.3L252.2,72.3L255.5,72.4L258.9,72.5L262.3,72.6L265.6,72.7L269,73L272.5,73.2L275.9,73.4L279.3,73.6L282.8,73.7L286.3,73.9L289.8,74.1L293.3,74.3L296.9,74.5L300.5,74.7L304.1,74.8L307.7,75L311.3,75L315,75L318.7,75L322.4,74.9L326.2,74.8L329.9,74.6L333.7,74.4L337.5,74.3L341.4,74.1L345.2,73.9L349,73.7L352.9,73.5L356.7,73.4L360.6,73.2L364.4,73L368.3,72.9L372.1,72.7L375.9,72.5L379.7,72.4L383.4,72.2L387.2,72.1L390.9,72L394.5,71.9L398.1,71.9L401.7,71.9L405.3,71.9L408.7,71.9L412.2,71.9L415.6,71.8L418.9,71.8L422.3,71.7L425.6,71.6L428.8,71.5L432.1,71.4L435.3,71.3L438.6,71.2L441.8,71.1L445.1,71L448.3,70.9L451.6,70.9L454.9,70.8L458.2,70.7L461.5,70.6L464.8,70.5L468.1,70.4L471.5,70.4L474.9,70.3L478.3,70.3L481.8,70.3L485.3,70.3L488.9,70.2L492.5,70.2L496.1,70.2L499.8,70.2L503.6,70.1L507.4,70L511.2,69.9L515.1,69.7L518.9,69.6L522.8,69.5L526.8,69.4L530.8,69.3L534.7,69.3L538.7,69.3" style="fill:none;fill-opacity:1;stroke:rgb(28, 111, 214);stroke-width:1.8px;stroke-dasharray:none;stroke-linejoin:round;stroke-linecap:round;stroke-opacity:1;opacity:1;font-family:&quot;Source Serif 4&quot;, STIX Two Text, Times New Roman, serif;font-size:14px;font-weight:400;font-style:normal;text-anchor:start"/><path d="M113,72L116.5,72L120,72L123.5,72.1L127,72.1L130.5,72.1L134,72.2L137.5,72.3L141,72.3L144.5,72.3L148,72.4L151.5,72.4L155.1,72.5L158.6,72.5L162.1,72.6L165.6,72.6L169.2,72.7L172.7,72.8L176.2,72.9L179.7,73L183.3,73.1L186.8,73.1L190.4,73.2L193.9,73.1L197.4,73.1L200.9,73.1L204.4,73L207.9,72.9L211.4,72.9L214.8,72.8L218.3,72.7L221.8,72.7L225.2,72.7L228.6,72.7L232,72.7L235.5,72.7L238.8,72.7L242.2,72.8L245.6,72.9L249,73L252.4,73.2L255.8,73.3L259.2,73.5L262.6,73.6L265.9,73.8L269.4,74L272.8,74.2L276.2,74.4L279.6,74.7L283.1,74.9L286.6,75.1L290.1,75.3L293.6,75.6L297.2,75.9L300.8,76.1L304.3,76.3L307.9,76.4L311.5,76.5L315.2,76.5L318.9,76.5L322.6,76.5L326.3,76.5L330,76.4L333.8,76.3L337.6,76.3L341.4,76.2L345.2,76.1L349,75.9L352.8,75.8L356.6,75.7L360.4,75.6L364.2,75.5L368,75.4L371.8,75.3L375.5,75.1L379.3,75L383,75L386.7,74.9L390.4,74.9L394,75L397.6,75L401.2,75L404.7,75.1L408.2,75.1L411.6,75.2L415,75.2L418.4,75.3L421.7,75.3L425.1,75.3L428.4,75.3L431.7,75.3L434.9,75.3L438.2,75.2L441.5,75.2L444.8,75.2L448.1,75.1L451.4,75.1L454.7,75.1L458,75.1L461.3,75.1L464.7,75L468,75L471.4,74.9L474.8,74.9L478.3,74.9L481.8,74.9L485.3,74.8L488.9,74.8L492.5,74.8L496.2,74.8L499.9,74.8L503.6,74.8L507.4,74.7L511.2,74.7L515.1,74.6L518.9,74.6L522.8,74.6L526.8,74.6L530.7,74.7L534.6,74.7L538.5,74.8" style="fill:none;fill-opacity:1;stroke:rgb(210, 96, 14);stroke-width:1.8px;stroke-dasharray:none;stroke-linejoin:round;stroke-linecap:round;stroke-opacity:1;opacity:1;font-family:&quot;Source Serif 4&quot;, STIX Two Text, Times New Roman, serif;font-size:14px;font-weight:400;font-style:normal;text-anchor:start"/><path d="M113,72L116.5,72L120,72L123.5,72.1L127,72.2L130.4,72.4L133.8,72.8L137.2,73.2L140.6,73.7L144,74.2L147.3,74.9L150.7,75.6L154,76.4L157.3,77.3L160.5,78.2L163.8,79.2L167.1,80.3L170.3,81.3L173.5,82.5L176.8,83.7L180,84.9L183.1,86.1L186.3,87.4L189.5,88.6L192.6,89.9L195.7,91.2L198.8,92.5L201.8,93.7L204.8,95L207.8,96.4L210.8,97.7L213.7,99.2L216.6,100.6L219.4,102.1L222.3,103.6L225.1,105.2L227.9,106.8L230.7,108.5L233.6,110.1L236.4,111.9L239.2,113.6L242,115.4L244.8,117.2L247.6,119L250.4,120.9L253.3,122.8L256.1,124.8L259,126.8L261.9,128.8L264.8,130.9L267.7,133L270.6,135.1L273.5,137.4L276.5,139.6L279.4,141.9L282.4,144.1L285.4,146.3L288.5,148.6L291.6,150.8L294.6,153L297.7,155.3L300.7,157.5L303.7,159.8L306.7,162.1L309.7,164.3L312.6,166.6L315.5,168.9L318.3,171.1L321.1,173.3L323.9,175.6L326.6,177.8L329.3,180L331.9,182.2L334.5,184.4L337.1,186.6L339.6,188.8L342.1,190.9L344.6,193.1L347,195.3L349.3,197.5L351.7,199.7L354,202L356.3,204.2L358.7,206.5L360.9,208.7L363.2,211L365.5,213.3L367.7,215.6L370,217.9L372.2,220.2L374.5,222.5L376.7,224.8L379,227.2L381.2,229.6L383.4,232L385.6,234.5L387.8,237L389.9,239.4L392.1,241.9L394.3,244.4L396.5,246.9L398.6,249.4L400.8,252L403,254.5L405.2,257.1L407.4,259.8L409.5,262.5L411.7,265.2L413.9,268L416.1,270.8L418.3,273.7L420.5,276.7L422.6,279.7L424.8,282.8L427,285.9L429.1,289.1L431.3,292.2L433.4,295.5L435.6,298.7L437.7,302L439.8,305.3" style="fill:none;fill-opacity:1;stroke:rgb(140, 140, 140);stroke-width:1.8px;stroke-dasharray:none;stroke-linejoin:round;stroke-linecap:round;stroke-opacity:1;opacity:1;font-family:&quot;Source Serif 4&quot;, STIX Two Text, Times New Roman, serif;font-size:14px;font-weight:400;font-style:normal;text-anchor:start"/></g><g style="fill:rgb(0, 0, 0);fill-opacity:1;stroke:none;stroke-width:1px;stroke-dasharray:none;stroke-linejoin:miter;stroke-linecap:butt;stroke-opacity:1;opacity:1;font-family:&quot;Source Serif 4&quot;, STIX Two Text, Times New Roman, serif;font-size:14px;font-weight:400;font-style:normal;text-anchor:start"><circle cx="537.6" cy="72" r="3.4" style="fill:rgb(26, 26, 26);fill-opacity:1;stroke:rgb(255, 255, 255);stroke-width:1px;stroke-dasharray:none;stroke-linejoin:miter;stroke-linecap:butt;stroke-opacity:1;opacity:1;font-family:&quot;Source Serif 4&quot;, STIX Two Text, Times New Roman, serif;font-size:14px;font-weight:400;font-style:normal;text-anchor:start"/></g><g style="fill:rgb(0, 0, 0);fill-opacity:1;stroke:none;stroke-width:1px;stroke-dasharray:none;stroke-linejoin:miter;stroke-linecap:butt;stroke-opacity:1;opacity:1;font-family:&quot;Source Serif 4&quot;, STIX Two Text, Times New Roman, serif;font-size:14px;font-weight:400;font-style:normal;text-anchor:start"><circle cx="538.7" cy="69.3" r="3.4" style="fill:rgb(28, 111, 214);fill-opacity:1;stroke:rgb(255, 255, 255);stroke-width:1px;stroke-dasharray:none;stroke-linejoin:miter;stroke-linecap:butt;stroke-opacity:1;opacity:1;font-family:&quot;Source Serif 4&quot;, STIX Two Text, Times New Roman, serif;font-size:14px;font-weight:400;font-style:normal;text-anchor:start"/></g><g style="fill:rgb(0, 0, 0);fill-opacity:1;stroke:none;stroke-width:1px;stroke-dasharray:none;stroke-linejoin:miter;stroke-linecap:butt;stroke-opacity:1;opacity:1;font-family:&quot;Source Serif 4&quot;, STIX Two Text, Times New Roman, serif;font-size:14px;font-weight:400;font-style:normal;text-anchor:start"><circle cx="538.5" cy="74.8" r="3.4" style="fill:rgb(210, 96, 14);fill-opacity:1;stroke:rgb(255, 255, 255);stroke-width:1px;stroke-dasharray:none;stroke-linejoin:miter;stroke-linecap:butt;stroke-opacity:1;opacity:1;font-family:&quot;Source Serif 4&quot;, STIX Two Text, Times New Roman, serif;font-size:14px;font-weight:400;font-style:normal;text-anchor:start"/></g><g style="fill:rgb(0, 0, 0);fill-opacity:1;stroke:none;stroke-width:1px;stroke-dasharray:none;stroke-linejoin:miter;stroke-linecap:butt;stroke-opacity:1;opacity:1;font-family:&quot;Source Serif 4&quot;, STIX Two Text, Times New Roman, serif;font-size:14px;font-weight:400;font-style:normal;text-anchor:start"><circle cx="439.8" cy="305.3" r="3.4" style="fill:rgb(140, 140, 140);fill-opacity:1;stroke:rgb(255, 255, 255);stroke-width:1px;stroke-dasharray:none;stroke-linejoin:miter;stroke-linecap:butt;stroke-opacity:1;opacity:1;font-family:&quot;Source Serif 4&quot;, STIX Two Text, Times New Roman, serif;font-size:14px;font-weight:400;font-style:normal;text-anchor:start"/></g><rect x="56" y="390" width="590" height="48" style="fill:rgb(255, 255, 255);fill-opacity:1;stroke:rgb(207, 207, 203);stroke-width:1px;stroke-dasharray:none;stroke-linejoin:miter;stroke-linecap:butt;stroke-opacity:1;opacity:1;font-family:&quot;Source Serif 4&quot;, STIX Two Text, Times New Roman, serif;font-size:14px;font-weight:400;font-style:normal;text-anchor:start"/><line x1="64" x2="90" y1="404" y2="404" style="fill:none;fill-opacity:1;stroke:rgb(26, 26, 26);stroke-width:1.8px;stroke-dasharray:5px, 3px;stroke-linejoin:round;stroke-linecap:round;stroke-opacity:1;opacity:1;font-family:&quot;Source Serif 4&quot;, STIX Two Text, Times New Roman, serif;font-size:14px;font-weight:400;font-style:normal;text-anchor:start"/><text x="96" y="408" style="fill:rgb(26, 26, 26);fill-opacity:1;stroke:none;stroke-width:1px;stroke-dasharray:none;stroke-linejoin:miter;stroke-linecap:butt;stroke-opacity:1;opacity:1;font-family:&quot;Source Serif 4&quot;, STIX Two Text, Times New Roman, serif;font-size:12px;font-weight:400;font-style:normal;text-anchor:start">No yaw controller (bare)</text><line x1="265.2" x2="291.2" y1="404" y2="404" style="fill:none;fill-opacity:1;stroke:rgb(28, 111, 214);stroke-width:1.8px;stroke-dasharray:none;stroke-linejoin:round;stroke-linecap:round;stroke-opacity:1;opacity:1;font-family:&quot;Source Serif 4&quot;, STIX Two Text, Times New Roman, serif;font-size:14px;font-weight:400;font-style:normal;text-anchor:start"/><text x="297.2" y="408" style="fill:rgb(26, 26, 26);fill-opacity:1;stroke:none;stroke-width:1px;stroke-dasharray:none;stroke-linejoin:miter;stroke-linecap:butt;stroke-opacity:1;opacity:1;font-family:&quot;Source Serif 4&quot;, STIX Two Text, Times New Roman, serif;font-size:12px;font-weight:400;font-style:normal;text-anchor:start">Yaw damper</text><line x1="378.2" x2="404.2" y1="404" y2="404" style="fill:none;fill-opacity:1;stroke:rgb(210, 96, 14);stroke-width:1.8px;stroke-dasharray:none;stroke-linejoin:round;stroke-linecap:round;stroke-opacity:1;opacity:1;font-family:&quot;Source Serif 4&quot;, STIX Two Text, Times New Roman, serif;font-size:14px;font-weight:400;font-style:normal;text-anchor:start"/><text x="410.2" y="408" style="fill:rgb(26, 26, 26);fill-opacity:1;stroke:none;stroke-width:1px;stroke-dasharray:none;stroke-linejoin:miter;stroke-linecap:butt;stroke-opacity:1;opacity:1;font-family:&quot;Source Serif 4&quot;, STIX Two Text, Times New Roman, serif;font-size:12px;font-weight:400;font-style:normal;text-anchor:start">Fly, real wiring</text><line x1="64" x2="90" y1="422" y2="422" style="fill:none;fill-opacity:1;stroke:rgb(140, 140, 140);stroke-width:1.8px;stroke-dasharray:none;stroke-linejoin:round;stroke-linecap:round;stroke-opacity:1;opacity:1;font-family:&quot;Source Serif 4&quot;, STIX Two Text, Times New Roman, serif;font-size:14px;font-weight:400;font-style:normal;text-anchor:start"/><text x="96" y="426" style="fill:rgb(26, 26, 26);fill-opacity:1;stroke:none;stroke-width:1px;stroke-dasharray:none;stroke-linejoin:miter;stroke-linecap:butt;stroke-opacity:1;opacity:1;font-family:&quot;Source Serif 4&quot;, STIX Two Text, Times New Roman, serif;font-size:12px;font-weight:400;font-style:normal;text-anchor:start">Fly, scrambled 08 (relay)</text></svg>
